<mxfile host="Electron" modified="2023-08-18T01:34:58.914Z" agent="Mozilla/5.0 (Windows NT 10.0; Win64; x64) AppleWebKit/537.36 (KHTML, like Gecko) draw.io/21.6.1 Chrome/112.0.5615.204 Electron/24.6.1 Safari/537.36" etag="Dyi6EI5-hY1RxHpG7KFo" version="21.6.1" type="device">
  <diagram name="第 1 页" id="bB537N-INVUiUfxHYbDp">
    <mxGraphModel dx="2885" dy="1188" grid="1" gridSize="10" guides="1" tooltips="1" connect="1" arrows="1" fold="1" page="1" pageScale="1" pageWidth="827" pageHeight="1169" math="0" shadow="0">
      <root>
        <mxCell id="0" />
        <mxCell id="1" parent="0" />
        <mxCell id="oLA8v_LMOyX2fYrxe-CH-184" value="" style="shape=cube;whiteSpace=wrap;html=1;boundedLbl=1;backgroundOutline=1;darkOpacity=0.05;darkOpacity2=0.1;strokeColor=#996185;fillColor=#808080;size=80;rotation=0;direction=south;gradientColor=#CC0000;gradientDirection=east;" parent="1" vertex="1">
          <mxGeometry x="-450" y="660" width="120" height="120" as="geometry">
            <mxPoint as="offset" />
          </mxGeometry>
        </mxCell>
        <mxCell id="oLA8v_LMOyX2fYrxe-CH-200" value="" style="shape=cube;whiteSpace=wrap;html=1;boundedLbl=1;backgroundOutline=1;darkOpacity=0.05;darkOpacity2=0.1;strokeColor=#996185;fillColor=#0000FF;size=80;rotation=0;direction=south;gradientColor=none;gradientDirection=east;" parent="1" vertex="1">
          <mxGeometry x="-310" y="660" width="90" height="90" as="geometry">
            <mxPoint as="offset" />
          </mxGeometry>
        </mxCell>
        <mxCell id="oLA8v_LMOyX2fYrxe-CH-201" value="" style="shape=cube;whiteSpace=wrap;html=1;boundedLbl=1;backgroundOutline=1;darkOpacity=0.05;darkOpacity2=0.1;strokeColor=#996185;fillColor=#0000FF;size=80;rotation=0;direction=south;gradientColor=none;gradientDirection=east;" parent="1" vertex="1">
          <mxGeometry x="-310" y="690" width="90" height="90" as="geometry">
            <mxPoint as="offset" />
          </mxGeometry>
        </mxCell>
        <mxCell id="oLA8v_LMOyX2fYrxe-CH-214" value="" style="shape=cube;whiteSpace=wrap;html=1;boundedLbl=1;backgroundOutline=1;darkOpacity=0.05;darkOpacity2=0.1;strokeColor=#996185;fillColor=#808080;size=80;rotation=0;direction=south;gradientColor=#0000FF;gradientDirection=east;" parent="1" vertex="1">
          <mxGeometry x="-190" y="660" width="120" height="120" as="geometry">
            <mxPoint as="offset" />
          </mxGeometry>
        </mxCell>
        <mxCell id="oLA8v_LMOyX2fYrxe-CH-216" value="" style="shape=flexArrow;endArrow=classic;html=1;rounded=0;fontColor=#E4FDE1;" parent="1" edge="1">
          <mxGeometry width="50" height="50" relative="1" as="geometry">
            <mxPoint x="220" y="719.66" as="sourcePoint" />
            <mxPoint x="260" y="719.66" as="targetPoint" />
          </mxGeometry>
        </mxCell>
        <mxCell id="oLA8v_LMOyX2fYrxe-CH-224" value="" style="group" parent="1" vertex="1" connectable="0">
          <mxGeometry x="250" y="660" width="120" height="120" as="geometry" />
        </mxCell>
        <mxCell id="oLA8v_LMOyX2fYrxe-CH-199" value="" style="shape=cube;whiteSpace=wrap;html=1;boundedLbl=1;backgroundOutline=1;darkOpacity=0.05;darkOpacity2=0.1;strokeColor=#9673a6;fillColor=#e1d5e7;size=10;rotation=0;direction=south;" parent="oLA8v_LMOyX2fYrxe-CH-224" vertex="1">
          <mxGeometry x="70" width="50" height="50" as="geometry">
            <mxPoint as="offset" />
          </mxGeometry>
        </mxCell>
        <mxCell id="oLA8v_LMOyX2fYrxe-CH-217" value="" style="shape=cube;whiteSpace=wrap;html=1;boundedLbl=1;backgroundOutline=1;darkOpacity=0.05;darkOpacity2=0.1;strokeColor=#6c8ebf;fillColor=#dae8fc;size=10;rotation=0;direction=south;" parent="oLA8v_LMOyX2fYrxe-CH-224" vertex="1">
          <mxGeometry x="60" y="10" width="50" height="50" as="geometry">
            <mxPoint as="offset" />
          </mxGeometry>
        </mxCell>
        <mxCell id="oLA8v_LMOyX2fYrxe-CH-218" value="" style="shape=cube;whiteSpace=wrap;html=1;boundedLbl=1;backgroundOutline=1;darkOpacity=0.05;darkOpacity2=0.1;strokeColor=#6c8ebf;fillColor=#dae8fc;size=10;rotation=0;direction=south;" parent="oLA8v_LMOyX2fYrxe-CH-224" vertex="1">
          <mxGeometry x="50" y="20" width="50" height="50" as="geometry">
            <mxPoint as="offset" />
          </mxGeometry>
        </mxCell>
        <mxCell id="oLA8v_LMOyX2fYrxe-CH-219" value="" style="shape=cube;whiteSpace=wrap;html=1;boundedLbl=1;backgroundOutline=1;darkOpacity=0.05;darkOpacity2=0.1;strokeColor=#d6b656;fillColor=#fff2cc;size=10;rotation=0;direction=south;" parent="oLA8v_LMOyX2fYrxe-CH-224" vertex="1">
          <mxGeometry x="40" y="30" width="50" height="50" as="geometry">
            <mxPoint as="offset" />
          </mxGeometry>
        </mxCell>
        <mxCell id="oLA8v_LMOyX2fYrxe-CH-220" value="" style="shape=cube;whiteSpace=wrap;html=1;boundedLbl=1;backgroundOutline=1;darkOpacity=0.05;darkOpacity2=0.1;strokeColor=#d79b00;fillColor=#ffe6cc;size=10;rotation=0;direction=south;" parent="oLA8v_LMOyX2fYrxe-CH-224" vertex="1">
          <mxGeometry x="30" y="40" width="50" height="50" as="geometry">
            <mxPoint as="offset" />
          </mxGeometry>
        </mxCell>
        <mxCell id="oLA8v_LMOyX2fYrxe-CH-221" value="" style="shape=cube;whiteSpace=wrap;html=1;boundedLbl=1;backgroundOutline=1;darkOpacity=0.05;darkOpacity2=0.1;strokeColor=#82b366;fillColor=#d5e8d4;size=10;rotation=0;direction=south;" parent="oLA8v_LMOyX2fYrxe-CH-224" vertex="1">
          <mxGeometry x="20" y="50" width="50" height="50" as="geometry">
            <mxPoint as="offset" />
          </mxGeometry>
        </mxCell>
        <mxCell id="oLA8v_LMOyX2fYrxe-CH-222" value="" style="shape=cube;whiteSpace=wrap;html=1;boundedLbl=1;backgroundOutline=1;darkOpacity=0.05;darkOpacity2=0.1;strokeColor=#82b366;fillColor=#d5e8d4;size=10;rotation=0;direction=south;" parent="oLA8v_LMOyX2fYrxe-CH-224" vertex="1">
          <mxGeometry x="10" y="60" width="50" height="50" as="geometry">
            <mxPoint as="offset" />
          </mxGeometry>
        </mxCell>
        <mxCell id="oLA8v_LMOyX2fYrxe-CH-223" value="" style="shape=cube;whiteSpace=wrap;html=1;boundedLbl=1;backgroundOutline=1;darkOpacity=0.05;darkOpacity2=0.1;strokeColor=#001DBC;fillColor=#0050ef;size=10;rotation=0;direction=south;fontColor=#ffffff;" parent="oLA8v_LMOyX2fYrxe-CH-224" vertex="1">
          <mxGeometry y="70" width="50" height="50" as="geometry">
            <mxPoint as="offset" />
          </mxGeometry>
        </mxCell>
        <mxCell id="oLA8v_LMOyX2fYrxe-CH-280" value="" style="group" parent="1" vertex="1" connectable="0">
          <mxGeometry x="-10" y="660" width="120" height="120" as="geometry" />
        </mxCell>
        <mxCell id="oLA8v_LMOyX2fYrxe-CH-181" value="" style="shape=cube;whiteSpace=wrap;html=1;boundedLbl=1;backgroundOutline=1;darkOpacity=0.05;darkOpacity2=0.1;strokeColor=#432D57;fontColor=#ffffff;fillColor=#76608a;size=10;rotation=0;direction=south;container=0;" parent="oLA8v_LMOyX2fYrxe-CH-280" vertex="1">
          <mxGeometry x="70" width="50" height="50" as="geometry">
            <mxPoint as="offset" />
          </mxGeometry>
        </mxCell>
        <mxCell id="oLA8v_LMOyX2fYrxe-CH-182" value="" style="shape=cube;whiteSpace=wrap;html=1;boundedLbl=1;backgroundOutline=1;darkOpacity=0.05;darkOpacity2=0.1;strokeColor=#314354;fontColor=#ffffff;fillColor=#647687;size=10;rotation=0;direction=south;container=0;" parent="oLA8v_LMOyX2fYrxe-CH-280" vertex="1">
          <mxGeometry x="60" y="10" width="50" height="50" as="geometry">
            <mxPoint as="offset" />
          </mxGeometry>
        </mxCell>
        <mxCell id="oLA8v_LMOyX2fYrxe-CH-183" value="" style="shape=cube;whiteSpace=wrap;html=1;boundedLbl=1;backgroundOutline=1;darkOpacity=0.05;darkOpacity2=0.1;strokeColor=#3A5431;fontColor=#ffffff;fillColor=#6d8764;size=10;rotation=0;direction=south;container=0;" parent="oLA8v_LMOyX2fYrxe-CH-280" vertex="1">
          <mxGeometry x="50" y="20" width="50" height="50" as="geometry">
            <mxPoint as="offset" />
          </mxGeometry>
        </mxCell>
        <mxCell id="oLA8v_LMOyX2fYrxe-CH-185" value="" style="shape=cube;whiteSpace=wrap;html=1;boundedLbl=1;backgroundOutline=1;darkOpacity=0.05;darkOpacity2=0.1;strokeColor=#B09500;fontColor=#000000;fillColor=#e3c800;size=10;rotation=0;direction=south;container=0;" parent="oLA8v_LMOyX2fYrxe-CH-280" vertex="1">
          <mxGeometry x="40" y="30" width="50" height="50" as="geometry">
            <mxPoint as="offset" />
          </mxGeometry>
        </mxCell>
        <mxCell id="oLA8v_LMOyX2fYrxe-CH-186" value="" style="shape=cube;whiteSpace=wrap;html=1;boundedLbl=1;backgroundOutline=1;darkOpacity=0.05;darkOpacity2=0.1;strokeColor=#BD7000;fontColor=#000000;fillColor=#f0a30a;size=10;rotation=0;direction=south;container=0;" parent="oLA8v_LMOyX2fYrxe-CH-280" vertex="1">
          <mxGeometry x="30" y="40" width="50" height="50" as="geometry">
            <mxPoint as="offset" />
          </mxGeometry>
        </mxCell>
        <mxCell id="oLA8v_LMOyX2fYrxe-CH-187" value="" style="shape=cube;whiteSpace=wrap;html=1;boundedLbl=1;backgroundOutline=1;darkOpacity=0.05;darkOpacity2=0.1;strokeColor=#C73500;fontColor=#000000;fillColor=#fa6800;size=10;rotation=0;direction=south;container=0;" parent="oLA8v_LMOyX2fYrxe-CH-280" vertex="1">
          <mxGeometry x="20" y="50" width="50" height="50" as="geometry">
            <mxPoint as="offset" />
          </mxGeometry>
        </mxCell>
        <mxCell id="oLA8v_LMOyX2fYrxe-CH-188" value="" style="shape=cube;whiteSpace=wrap;html=1;boundedLbl=1;backgroundOutline=1;darkOpacity=0.05;darkOpacity2=0.1;strokeColor=#B20000;fontColor=#ffffff;fillColor=#e51400;size=10;rotation=0;direction=south;container=0;" parent="oLA8v_LMOyX2fYrxe-CH-280" vertex="1">
          <mxGeometry x="10" y="60" width="50" height="50" as="geometry">
            <mxPoint as="offset" />
          </mxGeometry>
        </mxCell>
        <mxCell id="oLA8v_LMOyX2fYrxe-CH-189" value="" style="shape=cube;whiteSpace=wrap;html=1;boundedLbl=1;backgroundOutline=1;darkOpacity=0.05;darkOpacity2=0.1;strokeColor=#B20000;fontColor=#ffffff;fillColor=#e51400;size=10;rotation=0;direction=south;container=0;" parent="oLA8v_LMOyX2fYrxe-CH-280" vertex="1">
          <mxGeometry y="70" width="50" height="50" as="geometry">
            <mxPoint as="offset" />
          </mxGeometry>
        </mxCell>
        <mxCell id="oLA8v_LMOyX2fYrxe-CH-291" value="" style="group" parent="1" vertex="1" connectable="0">
          <mxGeometry x="130" y="660" width="90" height="120" as="geometry" />
        </mxCell>
        <mxCell id="oLA8v_LMOyX2fYrxe-CH-279" value="" style="group" parent="oLA8v_LMOyX2fYrxe-CH-291" vertex="1" connectable="0">
          <mxGeometry width="90" height="90" as="geometry" />
        </mxCell>
        <mxCell id="oLA8v_LMOyX2fYrxe-CH-236" value="" style="shape=cube;whiteSpace=wrap;html=1;boundedLbl=1;backgroundOutline=1;darkOpacity=0.05;darkOpacity2=0.1;strokeColor=#000000;fontColor=#E4FDE1;fillColor=#0000FF;direction=south;size=10;rotation=0;dashed=1;container=0;" parent="oLA8v_LMOyX2fYrxe-CH-279" vertex="1">
          <mxGeometry x="70" width="20" height="20" as="geometry" />
        </mxCell>
        <mxCell id="oLA8v_LMOyX2fYrxe-CH-243" value="" style="shape=cube;whiteSpace=wrap;html=1;boundedLbl=1;backgroundOutline=1;darkOpacity=0.05;darkOpacity2=0.1;strokeColor=#000000;fontColor=#E4FDE1;fillColor=#FFFFFF;direction=south;size=10;rotation=0;dashed=1;container=0;" parent="oLA8v_LMOyX2fYrxe-CH-279" vertex="1">
          <mxGeometry x="60" y="10" width="20" height="20" as="geometry" />
        </mxCell>
        <mxCell id="oLA8v_LMOyX2fYrxe-CH-247" value="" style="shape=cube;whiteSpace=wrap;html=1;boundedLbl=1;backgroundOutline=1;darkOpacity=0.05;darkOpacity2=0.1;strokeColor=#000000;fontColor=#E4FDE1;fillColor=#FFFFFF;direction=south;size=10;rotation=0;dashed=1;container=0;" parent="oLA8v_LMOyX2fYrxe-CH-279" vertex="1">
          <mxGeometry x="50" y="20" width="20" height="20" as="geometry" />
        </mxCell>
        <mxCell id="oLA8v_LMOyX2fYrxe-CH-252" value="" style="shape=cube;whiteSpace=wrap;html=1;boundedLbl=1;backgroundOutline=1;darkOpacity=0.05;darkOpacity2=0.1;strokeColor=#000000;fontColor=#E4FDE1;fillColor=#FFFFFF;direction=south;size=10;rotation=0;dashed=1;container=0;" parent="oLA8v_LMOyX2fYrxe-CH-279" vertex="1">
          <mxGeometry x="40" y="30" width="20" height="20" as="geometry" />
        </mxCell>
        <mxCell id="oLA8v_LMOyX2fYrxe-CH-253" value="" style="shape=cube;whiteSpace=wrap;html=1;boundedLbl=1;backgroundOutline=1;darkOpacity=0.05;darkOpacity2=0.1;strokeColor=#000000;fontColor=#E4FDE1;fillColor=#FFFFFF;direction=south;size=10;rotation=0;dashed=1;container=0;" parent="oLA8v_LMOyX2fYrxe-CH-279" vertex="1">
          <mxGeometry x="30" y="40" width="20" height="20" as="geometry" />
        </mxCell>
        <mxCell id="oLA8v_LMOyX2fYrxe-CH-254" value="" style="shape=cube;whiteSpace=wrap;html=1;boundedLbl=1;backgroundOutline=1;darkOpacity=0.05;darkOpacity2=0.1;strokeColor=#000000;fontColor=#E4FDE1;fillColor=#FFFFFF;direction=south;size=10;rotation=0;dashed=1;container=0;" parent="oLA8v_LMOyX2fYrxe-CH-279" vertex="1">
          <mxGeometry x="20" y="50" width="20" height="20" as="geometry" />
        </mxCell>
        <mxCell id="oLA8v_LMOyX2fYrxe-CH-255" value="" style="shape=cube;whiteSpace=wrap;html=1;boundedLbl=1;backgroundOutline=1;darkOpacity=0.05;darkOpacity2=0.1;strokeColor=#000000;fontColor=#E4FDE1;fillColor=#FFFFFF;direction=south;size=10;rotation=0;dashed=1;container=0;" parent="oLA8v_LMOyX2fYrxe-CH-279" vertex="1">
          <mxGeometry x="10" y="60" width="20" height="20" as="geometry" />
        </mxCell>
        <mxCell id="oLA8v_LMOyX2fYrxe-CH-257" value="" style="shape=cube;whiteSpace=wrap;html=1;boundedLbl=1;backgroundOutline=1;darkOpacity=0.05;darkOpacity2=0.1;strokeColor=#000000;fontColor=#ffffff;fillColor=#FFFFFF;direction=south;size=10;rotation=0;dashed=1;container=0;" parent="oLA8v_LMOyX2fYrxe-CH-279" vertex="1">
          <mxGeometry y="70" width="20" height="20" as="geometry" />
        </mxCell>
        <mxCell id="oLA8v_LMOyX2fYrxe-CH-281" value="" style="group" parent="oLA8v_LMOyX2fYrxe-CH-291" vertex="1" connectable="0">
          <mxGeometry y="30" width="90" height="90" as="geometry" />
        </mxCell>
        <mxCell id="oLA8v_LMOyX2fYrxe-CH-282" value="" style="shape=cube;whiteSpace=wrap;html=1;boundedLbl=1;backgroundOutline=1;darkOpacity=0.05;darkOpacity2=0.1;strokeColor=#000000;fontColor=#E4FDE1;fillColor=#FFFFFF;direction=south;size=10;rotation=0;dashed=1;container=0;" parent="oLA8v_LMOyX2fYrxe-CH-281" vertex="1">
          <mxGeometry x="70" width="20" height="20" as="geometry" />
        </mxCell>
        <mxCell id="oLA8v_LMOyX2fYrxe-CH-283" value="" style="shape=cube;whiteSpace=wrap;html=1;boundedLbl=1;backgroundOutline=1;darkOpacity=0.05;darkOpacity2=0.1;strokeColor=#000000;fontColor=#E4FDE1;fillColor=#FFFFFF;direction=south;size=10;rotation=0;dashed=1;container=0;" parent="oLA8v_LMOyX2fYrxe-CH-281" vertex="1">
          <mxGeometry x="60" y="10" width="20" height="20" as="geometry" />
        </mxCell>
        <mxCell id="oLA8v_LMOyX2fYrxe-CH-284" value="" style="shape=cube;whiteSpace=wrap;html=1;boundedLbl=1;backgroundOutline=1;darkOpacity=0.05;darkOpacity2=0.1;strokeColor=#000000;fontColor=#E4FDE1;fillColor=#FFFFFF;direction=south;size=10;rotation=0;dashed=1;container=0;" parent="oLA8v_LMOyX2fYrxe-CH-281" vertex="1">
          <mxGeometry x="50" y="20" width="20" height="20" as="geometry" />
        </mxCell>
        <mxCell id="oLA8v_LMOyX2fYrxe-CH-285" value="" style="shape=cube;whiteSpace=wrap;html=1;boundedLbl=1;backgroundOutline=1;darkOpacity=0.05;darkOpacity2=0.1;strokeColor=#000000;fontColor=#E4FDE1;fillColor=#FFFFFF;direction=south;size=10;rotation=0;dashed=1;container=0;" parent="oLA8v_LMOyX2fYrxe-CH-281" vertex="1">
          <mxGeometry x="40" y="30" width="20" height="20" as="geometry" />
        </mxCell>
        <mxCell id="oLA8v_LMOyX2fYrxe-CH-286" value="" style="shape=cube;whiteSpace=wrap;html=1;boundedLbl=1;backgroundOutline=1;darkOpacity=0.05;darkOpacity2=0.1;strokeColor=#000000;fontColor=#E4FDE1;fillColor=#FFFFFF;direction=south;size=10;rotation=0;dashed=1;container=0;" parent="oLA8v_LMOyX2fYrxe-CH-281" vertex="1">
          <mxGeometry x="30" y="40" width="20" height="20" as="geometry" />
        </mxCell>
        <mxCell id="oLA8v_LMOyX2fYrxe-CH-287" value="" style="shape=cube;whiteSpace=wrap;html=1;boundedLbl=1;backgroundOutline=1;darkOpacity=0.05;darkOpacity2=0.1;strokeColor=#000000;fontColor=#E4FDE1;fillColor=#FFFFFF;direction=south;size=10;rotation=0;dashed=1;container=0;" parent="oLA8v_LMOyX2fYrxe-CH-281" vertex="1">
          <mxGeometry x="20" y="50" width="20" height="20" as="geometry" />
        </mxCell>
        <mxCell id="oLA8v_LMOyX2fYrxe-CH-288" value="" style="shape=cube;whiteSpace=wrap;html=1;boundedLbl=1;backgroundOutline=1;darkOpacity=0.05;darkOpacity2=0.1;strokeColor=#000000;fontColor=#E4FDE1;fillColor=#FFFFFF;direction=south;size=10;rotation=0;dashed=1;container=0;" parent="oLA8v_LMOyX2fYrxe-CH-281" vertex="1">
          <mxGeometry x="10" y="60" width="20" height="20" as="geometry" />
        </mxCell>
        <mxCell id="oLA8v_LMOyX2fYrxe-CH-289" value="" style="shape=cube;whiteSpace=wrap;html=1;boundedLbl=1;backgroundOutline=1;darkOpacity=0.05;darkOpacity2=0.1;strokeColor=#000000;fontColor=#ffffff;fillColor=#0000FF;direction=south;size=10;rotation=0;dashed=1;container=0;" parent="oLA8v_LMOyX2fYrxe-CH-281" vertex="1">
          <mxGeometry y="70" width="20" height="20" as="geometry" />
        </mxCell>
        <mxCell id="oLA8v_LMOyX2fYrxe-CH-292" value="&lt;b&gt;&lt;font color=&quot;#000000&quot; style=&quot;font-size: 30px;&quot;&gt;*&lt;/font&gt;&lt;/b&gt;" style="text;html=1;align=center;verticalAlign=middle;resizable=0;points=[];autosize=1;strokeColor=none;fillColor=none;fontColor=#E4FDE1;" parent="1" vertex="1">
          <mxGeometry x="100" y="700" width="40" height="50" as="geometry" />
        </mxCell>
        <mxCell id="oLA8v_LMOyX2fYrxe-CH-293" value="" style="shape=flexArrow;endArrow=classic;html=1;rounded=0;fontColor=#E4FDE1;" parent="1" edge="1">
          <mxGeometry width="50" height="50" relative="1" as="geometry">
            <mxPoint x="-220" y="719.66" as="sourcePoint" />
            <mxPoint x="-180" y="719.66" as="targetPoint" />
          </mxGeometry>
        </mxCell>
        <mxCell id="oLA8v_LMOyX2fYrxe-CH-299" value="&lt;b&gt;&lt;font color=&quot;#000000&quot; style=&quot;font-size: 30px;&quot;&gt;*&lt;/font&gt;&lt;/b&gt;" style="text;html=1;align=center;verticalAlign=middle;resizable=0;points=[];autosize=1;strokeColor=none;fillColor=none;fontColor=#E4FDE1;" parent="1" vertex="1">
          <mxGeometry x="-340" y="700" width="40" height="50" as="geometry" />
        </mxCell>
        <mxCell id="oLA8v_LMOyX2fYrxe-CH-305" value="" style="group" parent="1" vertex="1" connectable="0">
          <mxGeometry x="-370" y="860" width="370" height="120" as="geometry" />
        </mxCell>
        <mxCell id="oLA8v_LMOyX2fYrxe-CH-202" value="&lt;b&gt;&lt;font color=&quot;#000000&quot; style=&quot;font-size: 30px;&quot;&gt;*&lt;/font&gt;&lt;/b&gt;" style="text;html=1;align=center;verticalAlign=middle;resizable=0;points=[];autosize=1;strokeColor=none;fillColor=none;fontColor=#E4FDE1;" parent="oLA8v_LMOyX2fYrxe-CH-305" vertex="1">
          <mxGeometry x="90" y="70" width="40" height="50" as="geometry" />
        </mxCell>
        <mxCell id="oLA8v_LMOyX2fYrxe-CH-294" value="" style="shape=cube;whiteSpace=wrap;html=1;boundedLbl=1;backgroundOutline=1;darkOpacity=0.05;darkOpacity2=0.1;strokeColor=#996185;fillColor=#808080;size=80;rotation=0;direction=south;gradientColor=#CC0000;gradientDirection=east;" parent="oLA8v_LMOyX2fYrxe-CH-305" vertex="1">
          <mxGeometry width="120" height="120" as="geometry">
            <mxPoint as="offset" />
          </mxGeometry>
        </mxCell>
        <mxCell id="oLA8v_LMOyX2fYrxe-CH-296" value="" style="endArrow=none;html=1;rounded=0;strokeColor=#000000;fontColor=#E4FDE1;fillColor=#F45B69;dashed=1;strokeWidth=2;exitX=0.483;exitY=0.792;exitDx=0;exitDy=0;exitPerimeter=0;" parent="oLA8v_LMOyX2fYrxe-CH-305" source="oLA8v_LMOyX2fYrxe-CH-294" edge="1">
          <mxGeometry width="50" height="50" relative="1" as="geometry">
            <mxPoint x="30" y="50" as="sourcePoint" />
            <mxPoint x="62" y="100" as="targetPoint" />
            <Array as="points">
              <mxPoint x="62" y="58" />
            </Array>
          </mxGeometry>
        </mxCell>
        <mxCell id="oLA8v_LMOyX2fYrxe-CH-297" value="" style="shape=cube;whiteSpace=wrap;html=1;boundedLbl=1;backgroundOutline=1;darkOpacity=0.05;darkOpacity2=0.1;strokeColor=#028090;fontColor=#E4FDE1;fillColor=#0000FF;direction=south;size=30;" parent="oLA8v_LMOyX2fYrxe-CH-305" vertex="1">
          <mxGeometry x="140" y="50" width="40" height="40" as="geometry" />
        </mxCell>
        <mxCell id="oLA8v_LMOyX2fYrxe-CH-298" value="" style="shape=cube;whiteSpace=wrap;html=1;boundedLbl=1;backgroundOutline=1;darkOpacity=0.05;darkOpacity2=0.1;strokeColor=#028090;fontColor=#E4FDE1;fillColor=#0000FF;direction=south;size=30;" parent="oLA8v_LMOyX2fYrxe-CH-305" vertex="1">
          <mxGeometry x="140" y="80" width="40" height="40" as="geometry" />
        </mxCell>
        <mxCell id="oLA8v_LMOyX2fYrxe-CH-302" value="" style="group" parent="oLA8v_LMOyX2fYrxe-CH-305" vertex="1" connectable="0">
          <mxGeometry x="250" width="120" height="120" as="geometry" />
        </mxCell>
        <mxCell id="oLA8v_LMOyX2fYrxe-CH-300" value="" style="shape=cube;whiteSpace=wrap;html=1;boundedLbl=1;backgroundOutline=1;darkOpacity=0.05;darkOpacity2=0.1;strokeColor=#996185;fillColor=#808080;size=50;rotation=0;direction=south;gradientColor=#FF0000;gradientDirection=east;" parent="oLA8v_LMOyX2fYrxe-CH-302" vertex="1">
          <mxGeometry x="30" width="90" height="90" as="geometry">
            <mxPoint as="offset" />
          </mxGeometry>
        </mxCell>
        <mxCell id="oLA8v_LMOyX2fYrxe-CH-301" value="" style="shape=cube;whiteSpace=wrap;html=1;boundedLbl=1;backgroundOutline=1;darkOpacity=0.05;darkOpacity2=0.1;strokeColor=#996185;fillColor=#6666FF;size=20;rotation=0;direction=south;gradientColor=#0000CC;gradientDirection=east;" parent="oLA8v_LMOyX2fYrxe-CH-302" vertex="1">
          <mxGeometry x="10" y="50" width="60" height="60" as="geometry">
            <mxPoint as="offset" />
          </mxGeometry>
        </mxCell>
        <mxCell id="oLA8v_LMOyX2fYrxe-CH-303" value="" style="shape=flexArrow;endArrow=classic;html=1;rounded=0;fontColor=#E4FDE1;" parent="oLA8v_LMOyX2fYrxe-CH-305" edge="1">
          <mxGeometry width="50" height="50" relative="1" as="geometry">
            <mxPoint x="230" y="49.16999999999996" as="sourcePoint" />
            <mxPoint x="270" y="49.16999999999996" as="targetPoint" />
          </mxGeometry>
        </mxCell>
        <mxCell id="oLA8v_LMOyX2fYrxe-CH-304" value="" style="endArrow=classic;html=1;rounded=0;strokeColor=#000000;fontColor=#E4FDE1;fillColor=#F45B69;strokeWidth=2;" parent="oLA8v_LMOyX2fYrxe-CH-305" edge="1">
          <mxGeometry width="50" height="50" relative="1" as="geometry">
            <mxPoint x="140" y="20" as="sourcePoint" />
            <mxPoint x="290" y="20" as="targetPoint" />
          </mxGeometry>
        </mxCell>
        <mxCell id="oLA8v_LMOyX2fYrxe-CH-308" value="Text" style="text;html=1;align=center;verticalAlign=middle;resizable=0;points=[];autosize=1;strokeColor=none;fillColor=none;fontColor=#E4FDE1;" parent="1" vertex="1">
          <mxGeometry x="-315" y="808" width="50" height="30" as="geometry" />
        </mxCell>
        <mxCell id="oLA8v_LMOyX2fYrxe-CH-309" value="&lt;font size=&quot;1&quot; color=&quot;#000000&quot;&gt;&lt;b style=&quot;font-size: 14px;&quot;&gt;Regular Convolution&lt;/b&gt;&lt;/font&gt;" style="text;html=1;align=center;verticalAlign=middle;resizable=0;points=[];autosize=1;strokeColor=none;fillColor=none;fontColor=#E4FDE1;" parent="1" vertex="1">
          <mxGeometry x="-375" y="798" width="160" height="30" as="geometry" />
        </mxCell>
        <mxCell id="oLA8v_LMOyX2fYrxe-CH-310" value="（）" style="text;html=1;align=center;verticalAlign=middle;resizable=0;points=[];autosize=1;strokeColor=none;fillColor=none;fontColor=#E4FDE1;" parent="1" vertex="1">
          <mxGeometry x="115" y="788" width="50" height="30" as="geometry" />
        </mxCell>
        <mxCell id="oLA8v_LMOyX2fYrxe-CH-311" value="&lt;font size=&quot;1&quot; color=&quot;#000000&quot;&gt;&lt;b style=&quot;font-size: 14px;&quot;&gt;Depthwise/Group Convolution&lt;/b&gt;&lt;/font&gt;" style="text;html=1;align=center;verticalAlign=middle;resizable=0;points=[];autosize=1;strokeColor=none;fillColor=none;fontColor=#E4FDE1;" parent="1" vertex="1">
          <mxGeometry x="10" y="798" width="220" height="30" as="geometry" />
        </mxCell>
        <mxCell id="oLA8v_LMOyX2fYrxe-CH-312" value="&lt;font size=&quot;1&quot; color=&quot;#000000&quot;&gt;&lt;b style=&quot;font-size: 14px;&quot;&gt;Partial Convolution&lt;/b&gt;&lt;/font&gt;" style="text;html=1;align=center;verticalAlign=middle;resizable=0;points=[];autosize=1;strokeColor=none;fillColor=none;fontColor=#E4FDE1;" parent="1" vertex="1">
          <mxGeometry x="-280" y="1000" width="150" height="30" as="geometry" />
        </mxCell>
        <mxCell id="oLA8v_LMOyX2fYrxe-CH-334" value="" style="group" parent="1" vertex="1" connectable="0">
          <mxGeometry x="100" y="867.5" width="110" height="105" as="geometry" />
        </mxCell>
        <mxCell id="oLA8v_LMOyX2fYrxe-CH-321" value="&lt;font color=&quot;#000000&quot;&gt;Filter&lt;/font&gt;" style="text;html=1;align=center;verticalAlign=middle;resizable=0;points=[];autosize=1;strokeColor=none;fillColor=none;fontColor=#E4FDE1;" parent="oLA8v_LMOyX2fYrxe-CH-334" vertex="1">
          <mxGeometry x="35" width="50" height="30" as="geometry" />
        </mxCell>
        <mxCell id="oLA8v_LMOyX2fYrxe-CH-313" value="&lt;b style=&quot;border-color: var(--border-color); color: rgb(228, 253, 225); font-family: Helvetica; font-size: 12px; font-style: normal; font-variant-ligatures: normal; font-variant-caps: normal; letter-spacing: normal; orphans: 2; text-align: center; text-indent: 0px; text-transform: none; widows: 2; word-spacing: 0px; -webkit-text-stroke-width: 0px; background-color: rgb(251, 251, 251); text-decoration-thickness: initial; text-decoration-style: initial; text-decoration-color: initial;&quot;&gt;&lt;font color=&quot;#000000&quot; style=&quot;border-color: var(--border-color); font-size: 30px;&quot;&gt;*&lt;/font&gt;&lt;/b&gt;" style="text;whiteSpace=wrap;html=1;fontColor=#E4FDE1;container=0;" parent="oLA8v_LMOyX2fYrxe-CH-334" vertex="1">
          <mxGeometry y="40" width="50" height="60" as="geometry" />
        </mxCell>
        <mxCell id="oLA8v_LMOyX2fYrxe-CH-316" value="" style="endArrow=classic;html=1;rounded=0;strokeColor=#000000;fontColor=#E4FDE1;fillColor=#F45B69;" parent="oLA8v_LMOyX2fYrxe-CH-334" edge="1">
          <mxGeometry width="50" height="50" relative="1" as="geometry">
            <mxPoint y="89.79999999999995" as="sourcePoint" />
            <mxPoint x="20" y="89.79999999999995" as="targetPoint" />
          </mxGeometry>
        </mxCell>
        <mxCell id="oLA8v_LMOyX2fYrxe-CH-318" value="" style="shape=cube;whiteSpace=wrap;html=1;boundedLbl=1;backgroundOutline=1;darkOpacity=0.05;darkOpacity2=0.1;strokeColor=#000000;fontColor=#ffffff;fillColor=#0000FF;direction=south;size=10;rotation=0;container=0;" parent="oLA8v_LMOyX2fYrxe-CH-334" vertex="1">
          <mxGeometry y="5" width="20" height="20" as="geometry" />
        </mxCell>
        <mxCell id="oLA8v_LMOyX2fYrxe-CH-322" value="&lt;font color=&quot;#000000&quot;&gt;Convolution&lt;/font&gt;" style="text;html=1;align=center;verticalAlign=middle;resizable=0;points=[];autosize=1;strokeColor=none;fillColor=none;fontColor=#E4FDE1;container=0;" parent="oLA8v_LMOyX2fYrxe-CH-334" vertex="1">
          <mxGeometry x="20" y="40" width="90" height="30" as="geometry" />
        </mxCell>
        <mxCell id="oLA8v_LMOyX2fYrxe-CH-328" value="&lt;font color=&quot;#000000&quot;&gt;Identity&lt;/font&gt;" style="text;html=1;align=center;verticalAlign=middle;resizable=0;points=[];autosize=1;strokeColor=none;fillColor=none;fontColor=#E4FDE1;container=0;" parent="oLA8v_LMOyX2fYrxe-CH-334" vertex="1">
          <mxGeometry x="35" y="75" width="60" height="30" as="geometry" />
        </mxCell>
        <mxCell id="oLA8v_LMOyX2fYrxe-CH-106" value="未命名图层" parent="0" />
      </root>
    </mxGraphModel>
  </diagram>
</mxfile>
